<?xml version="1.0" standalone="no"?>
<!DOCTYPE svg PUBLIC "-//W3C//DTD SVG 20010904//EN"
 "http://www.w3.org/TR/2001/REC-SVG-20010904/DTD/svg10.dtd">
<svg version="1.0" xmlns="http://www.w3.org/2000/svg"
 width="308.000000pt" height="84.000000pt" viewBox="0 0 308.000000 84.000000"
 preserveAspectRatio="xMidYMid meet">

<g transform="translate(0.000000,84.000000) scale(0.100000,-0.100000)"
fill="#000000" stroke="none">
<path d="M360 829 c-126 -21 -252 -117 -308 -236 -24 -52 -27 -69 -27 -168 0
-103 2 -114 32 -177 112 -236 407 -309 623 -154 l49 35 1088 3 c1202 3 1129
-1 1185 66 35 41 60 149 66 280 5 119 -10 175 -59 217 l-31 25 -1126 0 -1127
0 -49 35 c-92 65 -205 91 -316 74z m223 -83 c73 -35 138 -101 174 -174 24 -50
28 -69 28 -147 0 -76 -4 -99 -26 -145 -32 -69 -76 -119 -137 -159 -47 -30
-136 -60 -147 -49 -7 7 20 212 30 228 3 5 22 10 40 10 38 0 59 25 53 63 -2 18
-11 23 -40 25 -41 3 -43 8 -28 63 13 48 42 72 93 78 34 5 43 10 45 28 6 44
-14 63 -69 63 -59 0 -115 -26 -152 -70 -24 -28 -57 -114 -57 -147 0 -9 -19
-13 -67 -14 -71 0 -173 -16 -121 -18 52 -2 78 -24 41 -34 -14 -4 -12 -5 5 -6
39 -2 24 -20 -20 -24 -24 -2 -1 -4 50 -5 54 -1 92 -6 92 -12 0 -24 -31 -214
-36 -219 -3 -3 -34 10 -70 28 -73 38 -122 90 -161 171 -23 46 -27 68 -27 140
-1 72 4 94 27 145 28 59 76 118 130 157 90 65 245 76 350 24z m2267 -117 c0
-12 -48 -312 -56 -352 -4 -20 -11 -27 -30 -27 -20 0 -24 5 -24 30 l0 29 -24
-24 c-46 -46 -112 -45 -143 1 -23 35 -21 123 4 172 25 48 92 84 150 80 l41 -3
7 52 c6 52 7 53 41 53 19 0 34 -5 34 -11z m-1669 -187 c39 -195 38 -198 -13
-190 -18 2 -25 12 -34 48 l-11 45 -69 3 -70 3 -24 -51 c-21 -45 -27 -50 -57
-50 -18 0 -33 5 -33 10 0 10 148 301 177 348 12 19 21 23 56 20 l41 -3 37
-183z m302 79 c5 -5 6 -18 2 -30 -6 -19 -12 -20 -58 -15 -37 4 -57 2 -71 -9
-26 -19 -15 -32 38 -47 59 -16 78 -38 74 -86 -2 -31 -10 -43 -38 -62 -30 -21
-44 -23 -107 -20 -39 2 -74 6 -78 9 -3 4 -3 18 0 32 6 23 9 24 68 20 98 -7
121 31 36 56 -58 17 -79 37 -79 76 0 42 17 63 65 80 42 16 131 13 148 -4z
m257 4 c4 -2 5 -16 2 -30 -4 -24 -7 -25 -48 -19 -56 8 -96 -2 -92 -22 2 -9 28
-25 58 -37 41 -17 57 -29 64 -49 23 -66 -35 -118 -129 -118 -78 0 -97 8 -93
39 3 25 4 26 69 23 50 -3 68 0 78 12 16 20 8 32 -26 40 -56 13 -82 28 -93 55
-19 47 8 93 67 111 26 9 127 5 143 -5z m530 -7 c0 -31 -9 -42 -47 -62 -45 -23
-61 -51 -76 -132 -12 -68 -13 -69 -45 -72 -38 -4 -38 -11 -12 143 11 66 20
123 20 128 0 4 14 7 31 7 30 0 31 -1 25 -32 -4 -27 -4 -29 5 -15 12 21 67 57
87 57 6 0 12 -10 12 -22z m220 7 c52 -27 52 -98 -1 -137 -16 -12 -50 -22 -87
-25 -66 -6 -72 -12 -45 -39 14 -13 29 -15 80 -11 l64 5 -3 -26 c-4 -32 -49
-46 -122 -39 -67 6 -106 47 -106 112 0 24 5 56 11 72 31 84 134 127 209 88z
m-638 -95 c-18 -116 -12 -131 36 -106 45 23 69 64 82 139 l12 67 34 0 c19 0
34 -3 34 -7 0 -5 -9 -62 -20 -128 -11 -66 -20 -123 -20 -127 0 -5 -13 -8 -29
-8 -22 0 -30 5 -33 21 l-3 21 -28 -22 c-41 -33 -99 -38 -126 -11 -24 24 -26
57 -10 164 15 98 14 97 52 97 l34 0 -15 -100z"/>
<path d="M2656 449 c-47 -56 -29 -157 23 -130 34 18 70 74 77 119 l7 42 -41 0
c-33 0 -45 -6 -66 -31z"/>
<path d="M1053 479 c-18 -37 -33 -69 -33 -73 0 -3 20 -6 45 -6 51 0 52 1 32
90 l-12 55 -32 -66z"/>
<path d="M2372 457 c-35 -37 -29 -51 19 -44 47 6 75 28 66 51 -10 24 -60 20
-85 -7z"/>
</g>
</svg>
